<svg xmlns="http://www.w3.org/2000/svg" style="font-family: &quot;Helvetica Neue&quot;,Helvetica,Arial,sans-serif;" viewBox="0 0 600 400" width="600" height="400"><g class="sankey" transform="translate(50)"><g class="groups" /><g class="links"><g class="link" style="opacity: 0.8;"><path style="fill: rgb(192, 192, 192);" d="M 1 41.0076 A 578.195 578.195 0.143988 0 1 83.966 46.991 L 366.321 87.9301 A 576.195 576.195 0.143988 0 0 449 93.8928 L 449 95.8928 A 578.195 578.195 0.143988 0 1 366.034 89.9094 L 83.679 48.9703 A 576.195 576.195 0.143988 0 0 1 43.0076 Z" /><title>12TH → BALB
213</title></g><g class="link" style="opacity: 0.8;"><path style="fill: rgb(192, 192, 192);" d="M 1 45.2414 A 219.847 219.847 0.405732 0 1 87.772 63.09 L 363.017 181.326 A 217.847 217.847 0.405732 0 0 449 199.013 L 449 201.013 A 219.847 219.847 0.405732 0 1 362.228 183.164 L 86.9826 64.9276 A 217.847 217.847 0.405732 0 0 1 47.2414 Z" /><title>12TH → DUBL
242</title></g><g class="link" style="opacity: 0.8;"><path style="fill: rgb(192, 192, 192);" d="M 1 39.7362 A 0 0 0 0 0 1 39.7362 L 449 39.7362 A 0 0 0 0 0 449 39.7362 L 449 41.7362 A 0 0 0 0 0 449 41.7362 L 1 41.7362 A 0 0 0 0 0 1 41.7362 Z" /><title>12TH → 24TH
293</title></g><g class="link" style="opacity: 0.8;"><path style="fill: rgb(192, 192, 192);" d="M 1 46.6334 A 179.583 179.583 0.523307 0 1 90.7461 70.6667 L 360.253 226.162 A 177.583 177.583 0.523307 0 0 449 249.928 L 449 251.928 A 179.583 179.583 0.523307 0 1 359.254 227.895 L 89.7466 72.3991 A 177.583 177.583 0.523307 0 0 1 48.6334 Z" /><title>12TH → FRMT
312</title></g><g class="link" style="opacity: 0.8;"><path style="fill: rgb(192, 192, 192);" d="M 1 50.4425 A 148.991 148.991 0.701035 0 1 97.1006 85.5783 L 354.189 302.576 A 146.991 146.991 0.701035 0 0 449 337.241 L 449 339.241 A 148.991 148.991 0.701035 0 1 352.899 304.105 L 95.8106 87.1067 A 146.991 146.991 0.701035 0 0 1 52.4425 Z" /><title>12TH → WCRK
326</title></g><g class="link" style="opacity: 0.8;"><path style="fill: rgb(169, 169, 169);" d="M 1 103.335 A 226.3 226.3 0.392132 0 1 87.4828 120.512 L 363.282 234.569 A 224.3 224.3 0.392132 0 0 449 251.594 L 449 253.594 A 226.3 226.3 0.392132 0 1 362.517 236.417 L 86.7184 122.36 A 224.3 224.3 0.392132 0 0 1 105.335 Z" /><title>CIVC → FRMT
351</title></g><g class="link" style="opacity: 0.8;"><path style="fill: rgb(192, 192, 192);" d="M 1 48.4173 A 162.134 162.134 0.607076 0 1 93.4924 77.3875 L 357.766 260.945 A 159.928 159.928 0.607076 0 0 449 289.521 L 449 291.727 A 162.134 162.134 0.607076 0 1 356.508 262.757 L 92.2339 79.1994 A 159.928 159.928 0.607076 0 0 1 50.6234 Z" /><title>12TH → PHIL
439</title></g><g class="link" style="opacity: 0.8;"><path style="fill: rgb(211, 211, 211);" d="M 1 351.784 A 367.681 367.681 0.228604 0 0 84.3234 342.218 L 365.162 276.875 A 369.953 369.953 0.228604 0 1 449 267.25 L 449 269.521 A 367.681 367.681 0.228604 0 0 365.677 279.087 L 84.8381 344.43 A 369.953 369.953 0.228604 0 1 1 354.055 Z" /><title>POWL → FRMT
452</title></g><g class="link" style="opacity: 0.8;"><path style="fill: rgb(211, 211, 211);" d="M 1 357.432 A 0 0 0 0 0 1 357.432 L 449 357.432 A 0 0 0 0 0 449 357.432 L 449 360 A 0 0 0 0 0 449 360 L 1 360 A 0 0 0 0 0 1 360 Z" /><title>POWL → WCRK
511</title></g><g class="link" style="opacity: 0.8;"><path style="fill: rgb(169, 169, 169);" d="M 1 108.795 A 166.703 166.703 0.583613 0 1 92.8603 136.388 L 358.704 311.937 A 163.863 163.863 0.583613 0 0 449 339.06 L 449 341.899 A 166.703 166.703 0.583613 0 1 357.14 314.306 L 91.2957 138.757 A 163.863 163.863 0.583613 0 0 1 111.634 Z" /><title>CIVC → WCRK
565</title></g><g class="link" style="opacity: 0.8;"><path style="fill: rgb(192, 192, 192);" d="M 1 42.5428 A 282.042 282.042 0.306375 0 1 86.0649 55.6765 L 364.867 143.871 A 278.951 278.951 0.306375 0 0 449 156.861 L 449 159.952 A 282.042 282.042 0.306375 0 1 363.935 146.818 L 85.1328 58.6231 A 278.951 278.951 0.306375 0 0 1 45.6333 Z" /><title>12TH → DELN
615</title></g><g class="link" style="opacity: 0.8;"><path style="fill: rgb(211, 211, 211);" d="M 1 354.055 A 756.755 756.755 0.10914 0 0 83.4285 349.553 L 366.204 318.567 A 760.132 760.132 0.10914 0 1 449 314.045 L 449 317.422 A 756.755 756.755 0.10914 0 0 366.572 321.924 L 83.7963 352.909 A 760.132 760.132 0.10914 0 1 1 357.432 Z" /><title>POWL → PHIL
672</title></g><g class="link" style="opacity: 0.8;"><path style="fill: rgb(211, 211, 211);" d="M 1 348.276 A 263.99 263.99 0.325152 0 0 85.3324 334.444 L 363.547 240.653 A 267.498 267.498 0.325152 0 1 449 226.636 L 449 230.144 A 263.99 263.99 0.325152 0 0 364.668 243.977 L 86.453 337.767 A 267.498 267.498 0.325152 0 1 1 351.784 Z" /><title>POWL → DUBL
698</title></g><g class="link" style="opacity: 0.8;"><path style="fill: rgb(169, 169, 169);" d="M 1 105.217 A 191.181 191.181 0.484423 0 1 90.0324 127.213 L 361.634 270.143 A 187.603 187.603 0.484423 0 0 449 291.727 L 449 295.305 A 191.181 191.181 0.484423 0 1 359.968 273.309 L 88.3662 130.38 A 187.603 187.603 0.484423 0 0 1 108.795 Z" /><title>CIVC → PHIL
712</title></g><g class="link" style="opacity: 0.8;"><path style="fill: rgb(169, 169, 169);" d="M 1 99.5837 A 315.056 315.056 0.271955 0 1 85.6289 111.163 L 365.41 189.184 A 311.187 311.187 0.271955 0 0 449 200.621 L 449 204.49 A 315.056 315.056 0.271955 0 1 364.371 192.911 L 84.5895 114.89 A 311.187 311.187 0.271955 0 0 1 103.453 Z" /><title>CIVC → DUBL
770</title></g><g class="link" style="opacity: 0.8;"><path style="fill: rgb(169, 169, 169);" d="M 1 95.3323 A 477.709 477.709 0.175557 0 1 84.4352 102.675 L 366.307 152.674 A 473.458 473.458 0.175557 0 0 449 159.952 L 449 164.203 A 477.709 477.709 0.175557 0 1 365.565 156.86 L 83.6926 106.861 A 473.458 473.458 0.175557 0 0 1 99.5837 Z" /><title>CIVC → DELN
846</title></g><g class="link" style="opacity: 0.8;"><path style="fill: rgb(211, 211, 211);" d="M 1 343.648 A 201.292 201.292 0.44248 0 0 87.1895 324.262 L 360.829 194.608 A 205.92 205.92 0.44248 0 1 449 174.776 L 449 179.405 A 201.292 201.292 0.44248 0 0 362.811 198.79 L 89.1712 328.444 A 205.92 205.92 0.44248 0 1 1 348.276 Z" /><title>POWL → DELN
921</title></g><g class="link" style="opacity: 0.8;"><path style="fill: rgb(169, 169, 169);" d="M 1 82.2616 A 741.625 741.625 0.111253 0 0 83.3381 77.6767 L 366.091 46.0891 A 746.766 746.766 0.111253 0 1 449 41.4724 L 449 46.6132 A 741.625 741.625 0.111253 0 0 366.662 51.1981 L 83.9088 82.7858 A 746.766 746.766 0.111253 0 1 1 87.4025 Z" /><title>CIVC → 24TH
1.02k</title></g><g class="link" style="opacity: 0.8;"><path style="fill: rgb(128, 128, 128);" d="M 1 158.308 A 1002.63 1002.63 0.0135689 0 1 14.6042 158.4 L 435.467 164.111 A 997.367 997.367 0.0135689 0 0 449 164.203 L 449 169.47 A 1002.63 1002.63 0.0135689 0 1 435.396 169.377 L 14.5328 163.666 A 997.367 997.367 0.0135689 0 0 1 163.574 Z" /><title>EMBR → DELN
1.05k</title></g><g class="link" style="opacity: 0.8;"><path style="fill: rgb(105, 105, 105);" d="M 1 251.727 A 375.679 375.679 0.222578 0 0 83.9292 242.459 L 364.899 178.868 A 380.986 380.986 0.222578 0 1 449 169.47 L 449 174.776 A 375.679 375.679 0.222578 0 0 366.071 184.044 L 85.1006 247.635 A 380.986 380.986 0.222578 0 1 1 257.033 Z" /><title>MONT → DELN
1.06k</title></g><g class="link" style="opacity: 0.8;"><path style="fill: rgb(105, 105, 105);" d="M 1 267.25 A 996.894 996.894 0.0143206 0 0 15.2756 267.147 L 434.635 261.142 A 1003.11 1003.11 0.0143206 0 1 449 261.039 L 449 267.25 A 996.894 996.894 0.0143206 0 0 434.724 267.352 L 15.3646 273.358 A 1003.11 1003.11 0.0143206 0 1 1 273.461 Z" /><title>MONT → FRMT
1.24k</title></g><g class="link" style="opacity: 0.8;"><path style="fill: rgb(128, 128, 128);" d="M 1 175.504 A 401.588 401.588 0.211205 0 1 85.1884 184.428 L 366.397 244.72 A 394.025 394.025 0.211205 0 0 449 253.476 L 449 261.039 A 401.588 401.588 0.211205 0 1 364.812 252.115 L 83.6029 191.823 A 394.025 394.025 0.211205 0 0 1 183.067 Z" /><title>EMBR → FRMT
1.51k</title></g><g class="link" style="opacity: 0.8;"><path style="fill: rgb(105, 105, 105);" d="M 1 282.918 A 464.132 464.132 0.181561 0 1 84.8063 290.547 L 366.576 342.275 A 456.479 456.479 0.181561 0 0 449 349.779 L 449 357.432 A 464.132 464.132 0.181561 0 1 365.194 349.803 L 83.4244 298.075 A 456.479 456.479 0.181561 0 0 1 290.572 Z" /><title>MONT → WCRK
1.52k</title></g><g class="link" style="opacity: 0.8;"><path style="fill: rgb(128, 128, 128);" d="M 1 192.349 A 227.68 227.68 0.395327 0 1 88.6819 209.91 L 364.353 324.946 A 219.801 219.801 0.395327 0 0 449 341.899 L 449 349.779 A 227.68 227.68 0.395327 0 1 361.318 332.218 L 85.6474 217.182 A 219.801 219.801 0.395327 0 0 1 200.229 Z" /><title>EMBR → WCRK
1.57k</title></g><g class="link" style="opacity: 0.8;"><path style="fill: rgb(169, 169, 169);" d="M 1 87.4025 A 1003.96 1003.96 0.0186921 0 1 19.7651 87.5778 L 430.383 95.254 A 996.035 996.035 0.0186921 0 0 449 95.428 L 449 103.358 A 1003.96 1003.96 0.0186921 0 1 430.235 103.182 L 19.6169 95.5063 A 996.035 996.035 0.0186921 0 0 1 95.3323 Z" /><title>CIVC → BALB
1.58k</title></g><g class="link" style="opacity: 0.8;"><path style="fill: rgb(128, 128, 128);" d="M 1 141.634 A 327.039 327.039 0.256223 0 0 83.881 130.958 L 364.069 57.5538 A 335.13 335.13 0.256223 0 1 449 46.6132 L 449 54.7039 A 327.039 327.039 0.256223 0 0 366.119 65.3804 L 85.9314 138.784 A 335.13 335.13 0.256223 0 1 1 149.725 Z" /><title>EMBR → 24TH
1.61k</title></g><g class="link" style="opacity: 0.8;"><path style="fill: rgb(128, 128, 128);" d="M 1 149.725 A 651.953 651.953 0.12637 0 0 83.168 144.526 L 365.75 108.625 A 660.536 660.536 0.12637 0 1 449 103.358 L 449 111.941 A 651.953 651.953 0.12637 0 0 366.832 117.14 L 84.2498 153.041 A 660.536 660.536 0.12637 0 1 1 158.308 Z" /><title>EMBR → BALB
1.71k</title></g><g class="link" style="opacity: 0.8;"><path style="fill: rgb(211, 211, 211);" d="M 1 320.572 A 151.618 151.618 0.637272 0 0 91.2132 290.813 L 353.339 96.7579 A 160.774 160.774 0.637272 0 1 449 65.2016 L 449 74.3577 A 151.618 151.618 0.637272 0 0 358.787 104.117 L 96.661 298.172 A 160.774 160.774 0.637272 0 1 1 329.728 Z" /><title>POWL → 24TH
1.82k</title></g><g class="link" style="opacity: 0.8;"><path style="fill: rgb(128, 128, 128);" d="M 1 183.067 A 289.707 289.707 0.301013 0 1 86.8943 196.094 L 365.858 282.697 A 280.425 280.425 0.301013 0 0 449 295.305 L 449 304.587 A 289.707 289.707 0.301013 0 1 363.106 291.561 L 84.1425 204.958 A 280.425 280.425 0.301013 0 0 1 192.349 Z" /><title>EMBR → PHIL
1.85k</title></g><g class="link" style="opacity: 0.8;"><path style="fill: rgb(105, 105, 105);" d="M 1 273.461 A 976.61 976.61 0.0849903 0 1 83.9024 276.986 L 366.9 301.096 A 967.152 967.152 0.0849903 0 0 449 304.587 L 449 314.045 A 976.61 976.61 0.0849903 0 1 366.098 310.52 L 83.0996 286.409 A 967.152 967.152 0.0849903 0 0 1 282.918 Z" /><title>MONT → PHIL
1.88k</title></g><g class="link" style="opacity: 0.8;"><path style="fill: rgb(105, 105, 105);" d="M 1 257.033 A 742.258 742.258 0.110776 0 0 83.0562 252.484 L 365.814 221.032 A 752.474 752.474 0.110776 0 1 449 216.42 L 449 226.636 A 742.258 742.258 0.110776 0 0 366.944 231.186 L 84.1856 262.637 A 752.474 752.474 0.110776 0 1 1 267.25 Z" /><title>MONT → DUBL
2.03k</title></g><g class="link" style="opacity: 0.8;"><path style="fill: rgb(105, 105, 105);" d="M 1 230.229 A 192.598 192.598 0.458427 0 0 86.2318 210.343 L 359.123 75.6736 A 203.095 203.095 0.458427 0 1 449 54.7039 L 449 65.2016 A 192.598 192.598 0.458427 0 0 363.768 85.0874 L 90.8775 219.757 A 203.095 203.095 0.458427 0 1 1 240.726 Z" /><title>MONT → 24TH
2.09k</title></g><g class="link" style="opacity: 0.8;"><path style="fill: rgb(105, 105, 105);" d="M 1 240.726 A 247.583 247.583 0.343337 0 0 84.3442 226.277 L 361.953 127.033 A 258.584 258.584 0.343337 0 1 449 111.941 L 449 122.941 A 247.583 247.583 0.343337 0 0 365.656 137.391 L 88.0472 236.635 A 258.584 258.584 0.343337 0 1 1 251.727 Z" /><title>MONT → BALB
2.19k</title></g><g class="link" style="opacity: 0.8;"><path style="fill: rgb(128, 128, 128);" d="M 1 163.574 A 747.9 747.9 0.111596 0 1 84.2895 168.227 L 367.039 199.912 A 735.97 735.97 0.111596 0 0 449 204.49 L 449 216.42 A 747.9 747.9 0.111596 0 1 365.71 211.768 L 82.961 180.082 A 735.97 735.97 0.111596 0 0 1 175.504 Z" /><title>EMBR → DUBL
2.37k</title></g><g class="link" style="opacity: 0.8;"><path style="fill: rgb(211, 211, 211);" d="M 1 329.728 A 169.646 169.646 0.531268 0 0 86.9472 306.345 L 356.001 148.243 A 183.566 183.566 0.531268 0 1 449 122.941 L 449 136.861 A 169.646 169.646 0.531268 0 0 363.053 160.244 L 93.9994 318.346 A 183.566 183.566 0.531268 0 1 1 343.648 Z" /><title>POWL → BALB
2.77k</title></g></g><g class="nodes"><g class="node" transform="translate(0 230.229)"><title>MONT</title><text style="display: inline;" text-anchor="end" transform="translate(-4 30.1716)" dy="0.35em">MONT</text><line style="display: inline; stroke: rgb(0, 0, 0);" x1="0" y1="0" x2="0" y2="60.3432" /><rect style="visibility: hidden; fill: none; pointer-events: all;" x="-5" y="-5" width="10" height="65.3432" /></g><g class="node" transform="translate(449 156.861)"><title>DELN</title><text style="display: inline;" text-anchor="start" transform="translate(4 11.2716)" dy="0.35em">DELN</text><line style="display: inline; stroke: rgb(0, 0, 0);" x1="0" y1="0" x2="0" y2="22.5433" /><rect style="visibility: hidden; fill: none; pointer-events: all;" x="-5" y="-5" width="10" height="27.5433" /></g><g class="node" transform="translate(449 250.144)"><title>FRMT</title><text style="display: inline;" text-anchor="start" transform="translate(4 9.68869)" dy="0.35em">FRMT</text><line style="display: inline; stroke: rgb(0, 0, 0);" x1="0" y1="0" x2="0" y2="19.3774" /><rect style="visibility: hidden; fill: none; pointer-events: all;" x="-5" y="-5" width="10" height="24.3774" /></g><g class="node" transform="translate(449 337.422)"><title>WCRK</title><text style="display: inline;" text-anchor="start" transform="translate(4 11.2892)" dy="0.35em">WCRK</text><line style="display: inline; stroke: rgb(0, 0, 0);" x1="0" y1="0" x2="0" y2="22.5785" /><rect style="visibility: hidden; fill: none; pointer-events: all;" x="-5" y="-5" width="10" height="27.5785" /></g><g class="node" transform="translate(449 289.521)"><title>PHIL</title><text style="display: inline;" text-anchor="start" transform="translate(4 13.9501)" dy="0.35em">PHIL</text><line style="display: inline; stroke: rgb(0, 0, 0);" x1="0" y1="0" x2="0" y2="27.9002" /><rect style="visibility: hidden; fill: none; pointer-events: all;" x="-5" y="-5" width="10" height="32.9002" /></g><g class="node" transform="translate(0 40)"><title>12TH</title><text style="display: inline;" text-anchor="end" transform="translate(-4 6.13081)" dy="0.35em">12TH</text><line style="display: inline; stroke: rgb(0, 0, 0);" x1="0" y1="0" x2="0" y2="12.2616" /><rect style="visibility: hidden; fill: none; pointer-events: all;" x="-5" y="-5" width="10" height="17.2616" /></g><g class="node" transform="translate(449 199.405)"><title>DUBL</title><text style="display: inline;" text-anchor="start" transform="translate(4 15.3697)" dy="0.35em">DUBL</text><line style="display: inline; stroke: rgb(0, 0, 0);" x1="0" y1="0" x2="0" y2="30.7395" /><rect style="visibility: hidden; fill: none; pointer-events: all;" x="-5" y="-5" width="10" height="35.7395" /></g><g class="node" transform="translate(449 94.3577)"><title>BALB</title><text style="display: inline;" text-anchor="start" transform="translate(4 21.2518)" dy="0.35em">BALB</text><line style="display: inline; stroke: rgb(0, 0, 0);" x1="0" y1="0" x2="0" y2="42.5036" /><rect style="visibility: hidden; fill: none; pointer-events: all;" x="-5" y="-5" width="10" height="47.5036" /></g><g class="node" transform="translate(0 320.572)"><title>POWL</title><text style="display: inline;" text-anchor="end" transform="translate(-4 19.7141)" dy="0.35em">POWL</text><line style="display: inline; stroke: rgb(0, 0, 0);" x1="0" y1="0" x2="0" y2="39.4281" /><rect style="visibility: hidden; fill: none; pointer-events: all;" x="-5" y="-5" width="10" height="44.4281" /></g><g class="node" transform="translate(0 141.634)"><title>EMBR</title><text style="display: inline;" text-anchor="end" transform="translate(-4 29.2972)" dy="0.35em">EMBR</text><line style="display: inline; stroke: rgb(0, 0, 0);" x1="0" y1="0" x2="0" y2="58.5944" /><rect style="visibility: hidden; fill: none; pointer-events: all;" x="-5" y="-5" width="10" height="63.5944" /></g><g class="node" transform="translate(449 40)"><title>24TH</title><text style="display: inline;" text-anchor="start" transform="translate(4 17.1788)" dy="0.35em">24TH</text><line style="display: inline; stroke: rgb(0, 0, 0);" x1="0" y1="0" x2="0" y2="34.3576" /><rect style="visibility: hidden; fill: none; pointer-events: all;" x="-5" y="-5" width="10" height="39.3576" /></g><g class="node" transform="translate(0 82.2616)"><title>CIVC</title><text style="display: inline;" text-anchor="end" transform="translate(-4 14.6863)" dy="0.35em">CIVC</text><line style="display: inline; stroke: rgb(0, 0, 0);" x1="0" y1="0" x2="0" y2="29.3726" /><rect style="visibility: hidden; fill: none; pointer-events: all;" x="-5" y="-5" width="10" height="34.3726" /></g></g><g class="slice-titles" /></g></svg>