<svg xmlns="http://www.w3.org/2000/svg" style="font-family: &quot;Helvetica Neue&quot;,Helvetica,Arial,sans-serif;" viewBox="0 0 600 400" width="600" height="400"><g class="sankey" transform="translate(150)"><g class="groups" /><g class="links"><g class="link" style="opacity: 0.8;"><path style="fill: rgb(31, 119, 180);" d="M 1 41.0076 A 314.076 314.076 0.195925 0 1 62.1424 47.0165 L 268.247 87.9222 A 312.076 312.076 0.195925 0 0 329 93.8928 L 329 95.8928 A 314.076 314.076 0.195925 0 1 267.858 89.8839 L 61.7531 48.9782 A 312.076 312.076 0.195925 0 0 1 43.0076 Z" /><title>12TH → BALB
213</title></g><g class="link" style="opacity: 0.8;"><path style="fill: rgb(31, 119, 180);" d="M 1 45.2414 A 129.011 129.011 0.53862 0 1 67.1765 63.5071 L 263.849 181.03 A 127.011 127.011 0.53862 0 0 329 199.013 L 329 201.013 A 129.011 129.011 0.53862 0 1 262.823 182.747 L 66.1506 65.2239 A 127.011 127.011 0.53862 0 0 1 47.2414 Z" /><title>12TH → DUBL
242</title></g><g class="link" style="opacity: 0.8;"><path style="fill: rgb(31, 119, 180);" d="M 1 39.7362 A 0 0 0 0 0 1 39.7362 L 329 39.7362 A 0 0 0 0 0 329 39.7362 L 329 41.7362 A 0 0 0 0 0 329 41.7362 L 1 41.7362 A 0 0 0 0 0 1 41.7362 Z" /><title>12TH → 24TH
293</title></g><g class="link" style="opacity: 0.8;"><path style="fill: rgb(31, 119, 180);" d="M 1 46.6334 A 110.875 110.875 0.682907 0 1 70.9675 71.4979 L 260.295 225.512 A 108.875 108.875 0.682907 0 0 329 249.928 L 329 251.928 A 110.875 110.875 0.682907 0 1 259.033 227.063 L 69.7054 73.0494 A 108.875 108.875 0.682907 0 0 1 48.6334 Z" /><title>12TH → FRMT
312</title></g><g class="link" style="opacity: 0.8;"><path style="fill: rgb(31, 119, 180);" d="M 1 50.4425 A 100.288 100.288 0.887183 0 1 78.7527 87.3887 L 252.798 301.031 A 98.2879 98.2879 0.887183 0 0 329 337.241 L 329 339.241 A 100.288 100.288 0.887183 0 1 251.247 302.294 L 77.2021 88.6519 A 98.2879 98.2879 0.887183 0 0 1 52.4425 Z" /><title>12TH → WCRK
326</title></g><g class="link" style="opacity: 0.8;"><path style="fill: rgb(31, 119, 180);" d="M 1 103.335 A 132.086 132.086 0.521489 0 1 66.8017 120.892 L 264.195 234.302 A 130.086 130.086 0.521489 0 0 329 251.594 L 329 253.594 A 132.086 132.086 0.521489 0 1 263.198 236.037 L 65.8054 122.626 A 130.086 130.086 0.521489 0 0 1 105.335 Z" /><title>CIVC → FRMT
351</title></g><g class="link" style="opacity: 0.8;"><path style="fill: rgb(31, 119, 180);" d="M 1 48.4173 A 104.201 104.201 0.781307 0 1 74.379 78.6362 L 257.174 259.942 A 101.995 101.995 0.781307 0 0 329 289.521 L 329 291.727 A 104.201 104.201 0.781307 0 1 255.621 261.509 L 72.8255 80.2025 A 101.995 101.995 0.781307 0 0 1 50.6234 Z" /><title>12TH → PHIL
439</title></g><g class="link" style="opacity: 0.8;"><path style="fill: rgb(31, 119, 180);" d="M 1 351.784 A 202.446 202.446 0.309314 0 0 62.6255 342.176 L 266.683 276.965 A 204.717 204.717 0.309314 0 1 329 267.25 L 329 269.521 A 202.446 202.446 0.309314 0 0 267.375 279.129 L 63.3169 344.34 A 204.717 204.717 0.309314 0 1 1 354.055 Z" /><title>POWL → FRMT
452</title></g><g class="link" style="opacity: 0.8;"><path style="fill: rgb(31, 119, 180);" d="M 1 357.432 A 0 0 0 0 0 1 357.432 L 329 357.432 A 0 0 0 0 0 329 357.432 L 329 360 A 0 0 0 0 0 329 360 L 1 360 A 0 0 0 0 0 1 360 Z" /><title>POWL → WCRK
511</title></g><g class="link" style="opacity: 0.8;"><path style="fill: rgb(31, 119, 180);" d="M 1 108.795 A 106.042 106.042 0.754126 0 1 73.6019 137.546 L 258.342 311.078 A 103.203 103.203 0.754126 0 0 329 339.06 L 329 341.899 A 106.042 106.042 0.754126 0 1 256.398 313.148 L 71.658 139.616 A 103.203 103.203 0.754126 0 0 1 111.634 Z" /><title>CIVC → WCRK
565</title></g><g class="link" style="opacity: 0.8;"><path style="fill: rgb(31, 119, 180);" d="M 1 42.5428 A 159.857 159.857 0.411552 0 1 64.9478 55.8907 L 266.288 143.771 A 156.766 156.766 0.411552 0 0 329 156.861 L 329 159.952 A 159.857 159.857 0.411552 0 1 265.052 146.604 L 63.7115 58.7231 A 156.766 156.766 0.411552 0 0 1 45.6333 Z" /><title>12TH → DELN
615</title></g><g class="link" style="opacity: 0.8;"><path style="fill: rgb(31, 119, 180);" d="M 1 354.055 A 407.647 407.647 0.148745 0 0 61.412 349.554 L 268.088 318.583 A 411.024 411.024 0.148745 0 1 329 314.045 L 329 317.422 A 407.647 407.647 0.148745 0 0 268.588 321.923 L 61.9125 352.894 A 411.024 411.024 0.148745 0 1 1 357.432 Z" /><title>POWL → PHIL
672</title></g><g class="link" style="opacity: 0.8;"><path style="fill: rgb(31, 119, 180);" d="M 1 348.276 A 149.159 149.159 0.435894 0 0 63.9782 334.329 L 264.541 240.912 A 152.667 152.667 0.435894 0 1 329 226.636 L 329 230.144 A 149.159 149.159 0.435894 0 0 266.022 244.091 L 65.4592 337.508 A 152.667 152.667 0.435894 0 1 1 351.784 Z" /><title>POWL → DUBL
698</title></g><g class="link" style="opacity: 0.8;"><path style="fill: rgb(31, 119, 180);" d="M 1 105.217 A 116.289 116.289 0.635967 0 1 70.0707 127.952 L 262.054 269.692 A 112.711 112.711 0.635967 0 0 329 291.727 L 329 295.305 A 116.289 116.289 0.635967 0 1 259.929 272.571 L 67.9456 130.83 A 112.711 112.711 0.635967 0 0 1 108.795 Z" /><title>CIVC → PHIL
712</title></g><g class="link" style="opacity: 0.8;"><path style="fill: rgb(31, 119, 180);" d="M 1 99.5837 A 176.81 176.81 0.366573 0 1 64.372 111.331 L 267.015 189.131 A 172.941 172.941 0.366573 0 0 329 200.621 L 329 204.49 A 176.81 176.81 0.366573 0 1 265.628 192.743 L 62.9851 114.943 A 172.941 172.941 0.366573 0 0 1 103.453 Z" /><title>CIVC → DUBL
770</title></g><g class="link" style="opacity: 0.8;"><path style="fill: rgb(31, 119, 180);" d="M 1 95.3323 A 261.551 261.551 0.238447 0 1 62.7768 102.733 L 268.227 152.672 A 257.3 257.3 0.238447 0 0 329 159.952 L 329 164.203 A 261.551 261.551 0.238447 0 1 267.223 156.803 L 61.7726 106.864 A 257.3 257.3 0.238447 0 0 1 99.5837 Z" /><title>CIVC → DELN
846</title></g><g class="link" style="opacity: 0.8;"><path style="fill: rgb(31, 119, 180);" d="M 1 343.648 A 119.996 119.996 0.585476 0 0 67.3095 323.662 L 260.917 195.296 A 123.206 123.206 0.585476 0 1 329 174.776 L 329 179.405 A 118.578 118.578 0.585476 0 0 263.474 199.154 L 69.8671 327.52 A 124.625 124.625 0.585476 0 1 1 348.276 Z" /><title>POWL → DELN
921</title></g><g class="link" style="opacity: 0.8;"><path style="fill: rgb(31, 119, 180);" d="M 1 82.2616 A 399.182 399.182 0.151612 0 0 61.2891 77.6826 L 267.934 46.1104 A 404.323 404.323 0.151612 0 1 329 41.4724 L 329 46.6132 A 399.182 399.182 0.151612 0 0 268.711 51.1923 L 62.0655 82.7644 A 404.323 404.323 0.151612 0 1 1 87.4025 Z" /><title>CIVC → 24TH
1.02k</title></g><g class="link" style="opacity: 0.8;"><path style="fill: rgb(31, 119, 180);" d="M 1 158.308 A 1002.63 1002.63 0.0190808 0 1 20.1299 158.491 L 309.971 164.022 A 997.367 997.367 0.0190808 0 0 329 164.203 L 329 169.47 A 1002.63 1002.63 0.0190808 0 1 309.87 169.287 L 20.0294 163.756 A 997.367 997.367 0.0190808 0 0 1 163.574 Z" /><title>EMBR → DELN
1.05k</title></g><g class="link" style="opacity: 0.8;"><path style="fill: rgb(31, 119, 180);" d="M 1 251.727 A 205.87 205.87 0.301305 0 0 62.0953 242.452 L 266.33 178.983 A 211.177 211.177 0.301305 0 1 329 169.47 L 329 174.776 A 205.87 205.87 0.301305 0 0 267.905 184.051 L 63.6701 247.52 A 211.177 211.177 0.301305 0 1 1 257.033 Z" /><title>MONT → DELN
1.06k</title></g><g class="link" style="opacity: 0.8;"><path style="fill: rgb(31, 119, 180);" d="M 1 267.25 A 996.894 996.894 0.0201742 0 0 21.1102 267.047 L 308.765 261.243 A 1003.11 1003.11 0.0201742 0 1 329 261.039 L 329 267.25 A 996.894 996.894 0.0201742 0 0 308.89 267.453 L 21.2355 273.257 A 1003.11 1003.11 0.0201742 0 1 1 273.461 Z" /><title>MONT → FRMT
1.24k</title></g><g class="link" style="opacity: 0.8;"><path style="fill: rgb(31, 119, 180);" d="M 1 175.504 A 222.446 222.446 0.286159 0 1 63.7897 184.55 L 268.345 244.738 A 214.883 214.883 0.286159 0 0 329 253.476 L 329 261.039 A 222.446 222.446 0.286159 0 1 266.21 251.993 L 61.6549 191.806 A 214.883 214.883 0.286159 0 0 1 183.067 Z" /><title>EMBR → FRMT
1.51k</title></g><g class="link" style="opacity: 0.8;"><path style="fill: rgb(31, 119, 180);" d="M 1 282.918 A 255.219 255.219 0.246507 0 1 63.278 290.634 L 268.59 342.295 A 247.566 247.566 0.246507 0 0 329 349.779 L 329 357.432 A 255.219 255.219 0.246507 0 1 266.722 349.717 L 61.4105 298.056 A 247.566 247.566 0.246507 0 0 1 290.572 Z" /><title>MONT → WCRK
1.52k</title></g><g class="link" style="opacity: 0.8;"><path style="fill: rgb(31, 119, 180);" d="M 1 192.349 A 134.28 134.28 0.525521 0 1 68.3634 210.468 L 265.59 324.843 A 126.4 126.4 0.525521 0 0 329 341.899 L 329 349.779 A 134.28 134.28 0.525521 0 1 261.637 331.659 L 64.4105 217.285 A 126.4 126.4 0.525521 0 0 1 200.229 Z" /><title>EMBR → WCRK
1.57k</title></g><g class="link" style="opacity: 0.8;"><path style="fill: rgb(31, 119, 180);" d="M 1 87.4025 A 1003.96 1003.96 0.0266236 0 1 27.726 87.7582 L 302.485 95.075 A 996.035 996.035 0.0266236 0 0 329 95.428 L 329 103.358 A 1003.96 1003.96 0.0266236 0 1 302.274 103.002 L 27.5149 95.6853 A 996.035 996.035 0.0266236 0 0 1 95.3323 Z" /><title>CIVC → BALB
1.58k</title></g><g class="link" style="opacity: 0.8;"><path style="fill: rgb(31, 119, 180);" d="M 1 141.634 A 180.04 180.04 0.345868 0 0 62.0359 130.973 L 265.221 57.754 A 188.13 188.13 0.345868 0 1 329 46.6132 L 329 54.7039 A 180.04 180.04 0.345868 0 0 267.964 65.3656 L 64.7788 138.584 A 188.13 188.13 0.345868 0 1 1 149.725 Z" /><title>EMBR → 24TH
1.61k</title></g><g class="link" style="opacity: 0.8;"><path style="fill: rgb(31, 119, 180);" d="M 1 149.725 A 350.704 350.704 0.1721 0 0 61.0586 144.544 L 267.472 108.665 A 359.287 359.287 0.1721 0 1 329 103.358 L 329 111.941 A 350.704 350.704 0.1721 0 0 268.941 117.122 L 62.5285 153 A 359.287 359.287 0.1721 0 1 1 158.308 Z" /><title>EMBR → BALB
1.71k</title></g><g class="link" style="opacity: 0.8;"><path style="fill: rgb(31, 119, 180);" d="M 1 320.572 A 96.9205 96.9205 0.815852 0 0 71.5882 290.066 L 251.743 98.5894 A 106.076 106.076 0.815852 0 1 329 65.2016 L 329 74.3577 A 96.9205 96.9205 0.815852 0 0 258.412 104.864 L 78.2566 296.34 A 106.076 106.076 0.815852 0 1 1 329.728 Z" /><title>POWL → 24TH
1.82k</title></g><g class="link" style="opacity: 0.8;"><path style="fill: rgb(31, 119, 180);" d="M 1 183.067 A 165.257 165.257 0.404575 0 1 66.0498 196.409 L 267.604 282.713 A 155.975 155.975 0.404575 0 0 329 295.305 L 329 304.587 A 165.257 165.257 0.404575 0 1 263.95 291.246 L 62.3962 204.941 A 155.975 155.975 0.404575 0 0 1 192.349 Z" /><title>EMBR → PHIL
1.85k</title></g><g class="link" style="opacity: 0.8;"><path style="fill: rgb(31, 119, 180);" d="M 1 273.461 A 527.855 527.855 0.115931 0 1 62.0576 277.004 L 269.036 301.107 A 518.398 518.398 0.115931 0 0 329 304.587 L 329 314.045 A 527.855 527.855 0.115931 0 1 267.942 310.501 L 60.9637 286.398 A 518.398 518.398 0.115931 0 0 1 282.918 Z" /><title>MONT → PHIL
1.88k</title></g><g class="link" style="opacity: 0.8;"><path style="fill: rgb(31, 119, 180);" d="M 1 257.033 A 398.331 398.331 0.150964 0 0 60.9057 252.503 L 267.558 221.067 A 408.548 408.548 0.150964 0 1 329 216.42 L 329 226.636 A 398.331 398.331 0.150964 0 0 269.094 231.167 L 62.4421 262.603 A 408.548 408.548 0.150964 0 1 1 267.25 Z" /><title>MONT → DUBL
2.03k</title></g><g class="link" style="opacity: 0.8;"><path style="fill: rgb(31, 119, 180);" d="M 1 230.229 A 113.019 113.019 0.60415 0 0 65.2019 210.223 L 258.835 76.5682 A 123.517 123.517 0.60415 0 1 329 54.7039 L 329 65.2016 A 113.019 113.019 0.60415 0 0 264.798 85.2077 L 71.1653 218.862 A 123.517 123.517 0.60415 0 1 1 240.726 Z" /><title>MONT → 24TH
2.09k</title></g><g class="link" style="opacity: 0.8;"><path style="fill: rgb(31, 119, 180);" d="M 1 240.726 A 139.124 139.124 0.459327 0 0 62.6798 226.306 L 262.443 127.501 A 150.124 150.124 0.459327 0 1 329 111.941 L 329 122.941 A 139.124 139.124 0.459327 0 0 267.32 137.361 L 67.5568 236.166 A 150.124 150.124 0.459327 0 1 1 251.727 Z" /><title>MONT → BALB
2.19k</title></g><g class="link" style="opacity: 0.8;"><path style="fill: rgb(31, 119, 180);" d="M 1 163.574 A 406.514 406.514 0.152077 0 1 62.5834 168.266 L 269.224 199.936 A 394.584 394.584 0.152077 0 0 329 204.49 L 329 216.42 A 406.514 406.514 0.152077 0 1 267.417 211.728 L 60.7761 180.058 A 394.584 394.584 0.152077 0 0 1 175.504 Z" /><title>EMBR → DUBL
2.37k</title></g><g class="link" style="opacity: 0.8;"><path style="fill: rgb(31, 119, 180);" d="M 1 329.728 A 106.076 106.076 0.696202 0 0 69.0277 305.042 L 254.597 149.941 A 116.018 116.018 0.696202 0 1 329 122.941 L 329 136.861 A 102.098 102.098 0.696202 0 0 263.524 160.621 L 77.9547 315.723 A 119.996 119.996 0.696202 0 1 1 343.648 Z" /><title>POWL → BALB
2.77k</title></g></g><g class="nodes"><g class="node" transform="translate(0 82.2616)"><title>CIVC</title><text style="display: inline;" text-anchor="end" transform="translate(-4 14.6863)" dy="0.35em">CIVC</text><line style="display: inline; stroke: rgb(0, 0, 0);" x1="0" y1="0" x2="0" y2="29.3726" /><rect style="visibility: hidden; fill: none; pointer-events: all;" x="-5" y="-5" width="10" height="34.3726" /></g><g class="node" transform="translate(329 199.405)"><title>DUBL</title><text style="display: inline;" text-anchor="start" transform="translate(4 15.3697)" dy="0.35em">DUBL</text><line style="display: inline; stroke: rgb(0, 0, 0);" x1="0" y1="0" x2="0" y2="30.7395" /><rect style="visibility: hidden; fill: none; pointer-events: all;" x="-5" y="-5" width="10" height="35.7395" /></g><g class="node" transform="translate(0 320.572)"><title>POWL</title><text style="display: inline;" text-anchor="end" transform="translate(-4 19.7141)" dy="0.35em">POWL</text><line style="display: inline; stroke: rgb(0, 0, 0);" x1="0" y1="0" x2="0" y2="39.4281" /><rect style="visibility: hidden; fill: none; pointer-events: all;" x="-5" y="-5" width="10" height="44.4281" /></g><g class="node" transform="translate(329 337.422)"><title>WCRK</title><text style="display: inline;" text-anchor="start" transform="translate(4 11.2892)" dy="0.35em">WCRK</text><line style="display: inline; stroke: rgb(0, 0, 0);" x1="0" y1="0" x2="0" y2="22.5785" /><rect style="visibility: hidden; fill: none; pointer-events: all;" x="-5" y="-5" width="10" height="27.5785" /></g><g class="node" transform="translate(329 156.861)"><title>DELN</title><text style="display: inline;" text-anchor="start" transform="translate(4 11.2716)" dy="0.35em">DELN</text><line style="display: inline; stroke: rgb(0, 0, 0);" x1="0" y1="0" x2="0" y2="22.5433" /><rect style="visibility: hidden; fill: none; pointer-events: all;" x="-5" y="-5" width="10" height="27.5433" /></g><g class="node" transform="translate(0 141.634)"><title>EMBR</title><text style="display: inline;" text-anchor="end" transform="translate(-4 29.2972)" dy="0.35em">EMBR</text><line style="display: inline; stroke: rgb(0, 0, 0);" x1="0" y1="0" x2="0" y2="58.5944" /><rect style="visibility: hidden; fill: none; pointer-events: all;" x="-5" y="-5" width="10" height="63.5944" /></g><g class="node" transform="translate(0 40)"><title>12TH</title><text style="display: inline;" text-anchor="end" transform="translate(-4 6.13081)" dy="0.35em">12TH</text><line style="display: inline; stroke: rgb(0, 0, 0);" x1="0" y1="0" x2="0" y2="12.2616" /><rect style="visibility: hidden; fill: none; pointer-events: all;" x="-5" y="-5" width="10" height="17.2616" /></g><g class="node" transform="translate(329 289.521)"><title>PHIL</title><text style="display: inline;" text-anchor="start" transform="translate(4 13.9501)" dy="0.35em">PHIL</text><line style="display: inline; stroke: rgb(0, 0, 0);" x1="0" y1="0" x2="0" y2="27.9002" /><rect style="visibility: hidden; fill: none; pointer-events: all;" x="-5" y="-5" width="10" height="32.9002" /></g><g class="node" transform="translate(329 94.3577)"><title>BALB</title><text style="display: inline;" text-anchor="start" transform="translate(4 21.2518)" dy="0.35em">BALB</text><line style="display: inline; stroke: rgb(0, 0, 0);" x1="0" y1="0" x2="0" y2="42.5036" /><rect style="visibility: hidden; fill: none; pointer-events: all;" x="-5" y="-5" width="10" height="47.5036" /></g><g class="node" transform="translate(329 250.144)"><title>FRMT</title><text style="display: inline;" text-anchor="start" transform="translate(4 9.68869)" dy="0.35em">FRMT</text><line style="display: inline; stroke: rgb(0, 0, 0);" x1="0" y1="0" x2="0" y2="19.3774" /><rect style="visibility: hidden; fill: none; pointer-events: all;" x="-5" y="-5" width="10" height="24.3774" /></g><g class="node" transform="translate(329 40)"><title>24TH</title><text style="display: inline;" text-anchor="start" transform="translate(4 17.1788)" dy="0.35em">24TH</text><line style="display: inline; stroke: rgb(0, 0, 0);" x1="0" y1="0" x2="0" y2="34.3576" /><rect style="visibility: hidden; fill: none; pointer-events: all;" x="-5" y="-5" width="10" height="39.3576" /></g><g class="node" transform="translate(0 230.229)"><title>MONT</title><text style="display: inline;" text-anchor="end" transform="translate(-4 30.1716)" dy="0.35em">MONT</text><line style="display: inline; stroke: rgb(0, 0, 0);" x1="0" y1="0" x2="0" y2="60.3432" /><rect style="visibility: hidden; fill: none; pointer-events: all;" x="-5" y="-5" width="10" height="65.3432" /></g></g><g class="slice-titles" /></g></svg>