<svg xmlns="http://www.w3.org/2000/svg" style="font-family: &quot;Helvetica Neue&quot;,Helvetica,Arial,sans-serif;" viewBox="0 0 600 400" width="600" height="400"><g class="sankey" transform="translate(100)"><g class="groups" /><g class="links"><g class="link" style="opacity: 0.8;"><path style="fill: rgb(192, 192, 192);" d="M 1 41.0076 A 458.219 458.219 0.161888 0 1 74.8564 46.9989 L 325.466 87.9277 A 456.219 456.219 0.161888 0 0 399 93.8928 L 399 95.8928 A 458.219 458.219 0.161888 0 1 325.144 89.9015 L 74.534 48.9727 A 456.219 456.219 0.161888 0 0 1 43.0076 Z" /><title>12TH → BALB
213</title></g><g class="link" style="opacity: 0.8;"><path style="fill: rgb(192, 192, 192);" d="M 1 45.2414 A 178.585 178.585 0.452607 0 1 79.0972 63.2231 L 321.777 181.232 A 176.585 176.585 0.452607 0 0 399 199.013 L 399 201.013 A 178.585 178.585 0.452607 0 1 320.903 183.031 L 78.2226 65.0217 A 176.585 176.585 0.452607 0 0 1 47.2414 Z" /><title>12TH → DUBL
242</title></g><g class="link" style="opacity: 0.8;"><path style="fill: rgb(192, 192, 192);" d="M 1 39.7362 A 0 0 0 0 0 1 39.7362 L 399 39.7362 A 0 0 0 0 0 399 39.7362 L 399 41.7362 A 0 0 0 0 0 399 41.7362 L 1 41.7362 A 0 0 0 0 0 1 41.7362 Z" /><title>12TH → 24TH
293</title></g><g class="link" style="opacity: 0.8;"><path style="fill: rgb(192, 192, 192);" d="M 1 46.6334 A 148.372 148.372 0.580482 0 1 82.3712 70.9369 L 318.726 225.952 A 146.372 146.372 0.580482 0 0 399 249.928 L 399 251.928 A 148.372 148.372 0.580482 0 1 317.629 227.624 L 81.2744 72.6093 A 146.372 146.372 0.580482 0 0 1 48.6334 Z" /><title>12TH → FRMT
312</title></g><g class="link" style="opacity: 0.8;"><path style="fill: rgb(192, 192, 192);" d="M 1 50.4425 A 126.868 126.868 0.769502 0 1 89.2716 86.1865 L 312.12 302.06 A 124.868 124.868 0.769502 0 0 399 337.241 L 399 339.241 A 126.868 126.868 0.769502 0 1 310.728 303.497 L 87.88 87.623 A 124.868 124.868 0.769502 0 0 1 52.4425 Z" /><title>12TH → WCRK
326</title></g><g class="link" style="opacity: 0.8;"><path style="fill: rgb(169, 169, 169);" d="M 1 103.335 A 183.503 183.503 0.437687 0 1 78.7771 120.633 L 322.071 234.484 A 181.503 181.503 0.437687 0 0 399 251.594 L 399 253.594 A 183.503 183.503 0.437687 0 1 321.223 236.296 L 77.9294 122.445 A 181.503 181.503 0.437687 0 0 1 105.335 Z" /><title>CIVC → FRMT
351</title></g><g class="link" style="opacity: 0.8;"><path style="fill: rgb(192, 192, 192);" d="M 1 48.4173 A 135.818 135.818 0.670255 0 1 85.3681 77.7997 L 316.002 260.616 A 133.612 133.612 0.670255 0 0 399 289.521 L 399 291.727 A 135.818 135.818 0.670255 0 1 314.632 262.345 L 83.9977 79.5285 A 133.612 133.612 0.670255 0 0 1 50.6234 Z" /><title>12TH → PHIL
439</title></g><g class="link" style="opacity: 0.8;"><path style="fill: rgb(211, 211, 211);" d="M 1 351.784 A 292.623 292.623 0.256571 0 0 75.2573 342.205 L 324.166 276.903 A 294.894 294.894 0.256571 0 1 399 267.25 L 399 269.521 A 292.623 292.623 0.256571 0 0 324.743 279.1 L 75.8338 344.402 A 294.894 294.894 0.256571 0 1 1 354.055 Z" /><title>POWL → FRMT
452</title></g><g class="link" style="opacity: 0.8;"><path style="fill: rgb(211, 211, 211);" d="M 1 357.432 A 0 0 0 0 0 1 357.432 L 399 357.432 A 0 0 0 0 0 399 357.432 L 399 360 A 0 0 0 0 0 399 360 L 1 360 A 0 0 0 0 0 1 360 Z" /><title>POWL → WCRK
511</title></g><g class="link" style="opacity: 0.8;"><path style="fill: rgb(169, 169, 169);" d="M 1 108.795 A 139.148 139.148 0.645229 0 1 84.6808 136.769 L 317.027 311.657 A 136.308 136.308 0.645229 0 0 399 339.06 L 399 341.899 A 139.148 139.148 0.645229 0 1 315.319 313.925 L 82.9733 139.037 A 136.308 136.308 0.645229 0 0 1 111.634 Z" /><title>CIVC → WCRK
565</title></g><g class="link" style="opacity: 0.8;"><path style="fill: rgb(192, 192, 192);" d="M 1 42.5428 A 226.539 226.539 0.34307 0 1 77.203 55.744 L 323.837 143.84 A 223.448 223.448 0.34307 0 0 399 156.861 L 399 159.952 A 226.539 226.539 0.34307 0 1 322.797 146.751 L 76.1634 58.6544 A 223.448 223.448 0.34307 0 0 1 45.6333 Z" /><title>12TH → DELN
615</title></g><g class="link" style="opacity: 0.8;"><path style="fill: rgb(211, 211, 211);" d="M 1 354.055 A 598.171 598.171 0.122768 0 0 74.2523 349.553 L 325.334 318.572 A 601.548 601.548 0.122768 0 1 399 314.045 L 399 317.422 A 598.171 598.171 0.122768 0 0 325.748 321.924 L 74.6658 352.904 A 601.548 601.548 0.122768 0 1 1 357.432 Z" /><title>POWL → PHIL
672</title></g><g class="link" style="opacity: 0.8;"><path style="fill: rgb(211, 211, 211);" d="M 1 348.276 A 211.828 211.828 0.363862 0 0 76.3866 334.408 L 322.365 240.734 A 215.336 215.336 0.363862 0 1 399 226.636 L 399 230.144 A 211.828 211.828 0.363862 0 0 323.613 244.012 L 77.6349 337.686 A 215.336 215.336 0.363862 0 1 1 351.784 Z" /><title>POWL → DUBL
698</title></g><g class="link" style="opacity: 0.8;"><path style="fill: rgb(169, 169, 169);" d="M 1 105.217 A 157.161 157.161 0.538422 0 1 81.5894 127.452 L 320.245 269.998 A 153.583 153.583 0.538422 0 0 399 291.727 L 399 295.305 A 157.161 157.161 0.538422 0 1 318.411 273.07 L 79.7546 130.524 A 153.583 153.583 0.538422 0 0 1 108.795 Z" /><title>CIVC → PHIL
712</title></g><g class="link" style="opacity: 0.8;"><path style="fill: rgb(169, 169, 169);" d="M 1 99.5837 A 252.258 252.258 0.304859 0 1 76.7174 111.215 L 324.444 189.167 A 248.388 248.388 0.304859 0 0 399 200.621 L 399 204.49 A 252.258 252.258 0.304859 0 1 323.283 192.858 L 75.5559 114.906 A 248.388 248.388 0.304859 0 0 1 103.453 Z" /><title>CIVC → DUBL
770</title></g><g class="link" style="opacity: 0.8;"><path style="fill: rgb(169, 169, 169);" d="M 1 95.3323 A 379.519 379.519 0.197269 0 1 75.3828 102.693 L 325.45 152.674 A 375.268 375.268 0.197269 0 0 399 159.952 L 399 164.203 A 379.519 379.519 0.197269 0 1 324.617 156.843 L 74.5496 106.862 A 375.268 375.268 0.197269 0 0 1 99.5837 Z" /><title>CIVC → DELN
846</title></g><g class="link" style="opacity: 0.8;"><path style="fill: rgb(211, 211, 211);" d="M 1 343.648 A 163.719 163.719 0.492793 0 0 78.4535 324.168 L 319.357 194.807 A 168.347 168.347 0.492793 0 1 399 174.776 L 399 179.405 A 163.719 163.719 0.492793 0 0 321.547 198.885 L 80.6431 328.245 A 168.347 168.347 0.492793 0 1 1 348.276 Z" /><title>POWL → DELN
921</title></g><g class="link" style="opacity: 0.8;"><path style="fill: rgb(169, 169, 169);" d="M 1 82.2616 A 586.07 586.07 0.125142 0 0 74.1507 77.6785 L 325.208 46.0957 A 591.21 591.21 0.125142 0 1 399 41.4724 L 399 46.6132 A 586.07 586.07 0.125142 0 0 325.849 51.1963 L 74.7923 82.7792 A 591.21 591.21 0.125142 0 1 1 87.4025 Z" /><title>CIVC → 24TH
1.02k</title></g><g class="link" style="opacity: 0.8;"><path style="fill: rgb(128, 128, 128);" d="M 1 158.308 A 1002.63 1002.63 0.0154071 0 1 16.4471 158.427 L 383.634 164.085 A 997.367 997.367 0.0154071 0 0 399 164.203 L 399 169.47 A 1002.63 1002.63 0.0154071 0 1 383.553 169.351 L 16.366 163.693 A 997.367 997.367 0.0154071 0 0 1 163.574 Z" /><title>EMBR → DELN
1.05k</title></g><g class="link" style="opacity: 0.8;"><path style="fill: rgb(105, 105, 105);" d="M 1 251.727 A 298.543 298.543 0.249845 0 0 74.8158 242.457 L 323.872 178.904 A 303.85 303.85 0.249845 0 1 399 169.47 L 399 174.776 A 298.543 298.543 0.249845 0 0 325.184 184.046 L 76.1279 247.599 A 303.85 303.85 0.249845 0 1 1 257.033 Z" /><title>MONT → DELN
1.06k</title></g><g class="link" style="opacity: 0.8;"><path style="fill: rgb(105, 105, 105);" d="M 1 267.25 A 996.894 996.894 0.0162691 0 0 17.2179 267.118 L 382.681 261.171 A 1003.11 1003.11 0.0162691 0 1 399 261.039 L 399 267.25 A 996.894 996.894 0.0162691 0 0 382.782 267.382 L 17.3189 273.328 A 1003.11 1003.11 0.0162691 0 1 1 273.461 Z" /><title>MONT → FRMT
1.24k</title></g><g class="link" style="opacity: 0.8;"><path style="fill: rgb(128, 128, 128);" d="M 1 175.504 A 320.212 320.212 0.237144 0 1 76.2266 184.466 L 325.55 244.726 A 312.649 312.649 0.237144 0 0 399 253.476 L 399 261.039 A 320.212 320.212 0.237144 0 1 323.773 252.077 L 74.4499 191.818 A 312.649 312.649 0.237144 0 0 1 183.067 Z" /><title>EMBR → FRMT
1.51k</title></g><g class="link" style="opacity: 0.8;"><path style="fill: rgb(105, 105, 105);" d="M 1 282.918 A 369.233 369.233 0.203992 0 1 75.7992 290.574 L 325.751 342.282 A 361.58 361.58 0.203992 0 0 399 349.779 L 399 357.432 A 369.233 369.233 0.203992 0 1 324.201 349.776 L 74.2487 298.069 A 361.58 361.58 0.203992 0 0 1 290.572 Z" /><title>MONT → WCRK
1.52k</title></g><g class="link" style="opacity: 0.8;"><path style="fill: rgb(128, 128, 128);" d="M 1 192.349 A 185.253 185.253 0.441194 0 1 80.1066 210.088 L 323.258 324.914 A 177.373 177.373 0.441194 0 0 399 341.899 L 399 349.779 A 185.253 185.253 0.441194 0 1 319.893 332.039 L 76.7418 217.213 A 177.373 177.373 0.441194 0 0 1 200.229 Z" /><title>EMBR → WCRK
1.57k</title></g><g class="link" style="opacity: 0.8;"><path style="fill: rgb(169, 169, 169);" d="M 1 87.4025 A 1003.96 1003.96 0.0213019 0 1 22.3847 87.6302 L 377.784 95.202 A 996.035 996.035 0.0213019 0 0 399 95.428 L 399 103.358 A 1003.96 1003.96 0.0213019 0 1 377.615 103.13 L 22.2158 95.5583 A 996.035 996.035 0.0213019 0 0 1 95.3323 Z" /><title>CIVC → BALB
1.58k</title></g><g class="link" style="opacity: 0.8;"><path style="fill: rgb(128, 128, 128);" d="M 1 141.634 A 260.264 260.264 0.287355 0 0 74.7632 130.963 L 322.944 57.6166 A 268.355 268.355 0.287355 0 1 399 46.6132 L 399 54.7039 A 260.264 260.264 0.287355 0 0 325.237 65.3755 L 77.0563 138.721 A 268.355 268.355 0.287355 0 1 1 149.725 Z" /><title>EMBR → 24TH
1.61k</title></g><g class="link" style="opacity: 0.8;"><path style="fill: rgb(128, 128, 128);" d="M 1 149.725 A 515.11 515.11 0.142117 0 0 73.9597 144.532 L 324.825 108.638 A 523.693 523.693 0.142117 0 1 399 103.358 L 399 111.941 A 515.11 515.11 0.142117 0 0 326.04 117.134 L 75.1754 153.028 A 523.693 523.693 0.142117 0 1 1 158.308 Z" /><title>EMBR → BALB
1.71k</title></g><g class="link" style="opacity: 0.8;"><path style="fill: rgb(211, 211, 211);" d="M 1 320.572 A 126.771 126.771 0.702321 0 0 82.8931 290.571 L 311.192 97.3695 A 135.927 135.927 0.702321 0 1 399 65.2016 L 399 74.3577 A 126.771 126.771 0.702321 0 0 317.107 104.359 L 88.8078 297.56 A 135.927 135.927 0.702321 0 1 1 329.728 Z" /><title>POWL → 24TH
1.82k</title></g><g class="link" style="opacity: 0.8;"><path style="fill: rgb(128, 128, 128);" d="M 1 183.067 A 233.175 233.175 0.337125 0 1 78.1286 196.193 L 324.942 282.702 A 223.893 223.893 0.337125 0 0 399 295.305 L 399 304.587 A 233.175 233.175 0.337125 0 1 321.871 291.462 L 75.0584 204.952 A 223.893 223.893 0.337125 0 0 1 192.349 Z" /><title>EMBR → PHIL
1.85k</title></g><g class="link" style="opacity: 0.8;"><path style="fill: rgb(105, 105, 105);" d="M 1 273.461 A 772.762 772.762 0.0956283 0 1 74.7854 276.992 L 326.118 301.1 A 763.305 763.305 0.0956283 0 0 399 304.587 L 399 314.045 A 772.762 772.762 0.0956283 0 1 325.215 310.514 L 73.8823 286.406 A 763.305 763.305 0.0956283 0 0 1 282.918 Z" /><title>MONT → PHIL
1.88k</title></g><g class="link" style="opacity: 0.8;"><path style="fill: rgb(105, 105, 105);" d="M 1 257.033 A 586.028 586.028 0.124606 0 0 73.8338 252.49 L 324.896 221.043 A 596.245 596.245 0.124606 0 1 399 216.42 L 399 226.636 A 586.028 586.028 0.124606 0 0 326.166 231.18 L 75.1035 262.627 A 596.245 596.245 0.124606 0 1 1 267.25 Z" /><title>MONT → DUBL
2.03k</title></g><g class="link" style="opacity: 0.8;"><path style="fill: rgb(105, 105, 105);" d="M 1 230.229 A 156.449 156.449 0.510173 0 0 77.3983 210.306 L 317.475 75.9628 A 166.947 166.947 0.510173 0 1 399 54.7039 L 399 65.2016 A 156.449 156.449 0.510173 0 0 322.602 85.1238 L 82.5247 219.467 A 166.947 166.947 0.510173 0 1 1 240.726 Z" /><title>MONT → 24TH
2.09k</title></g><g class="link" style="opacity: 0.8;"><path style="fill: rgb(105, 105, 105);" d="M 1 240.726 A 198.315 198.315 0.383959 0 0 75.2877 226.287 L 320.592 127.181 A 209.316 209.316 0.383959 0 1 399 111.941 L 399 122.941 A 198.315 198.315 0.383959 0 0 324.712 137.381 L 79.4084 236.486 A 209.316 209.316 0.383959 0 1 1 251.727 Z" /><title>MONT → BALB
2.19k</title></g><g class="link" style="opacity: 0.8;"><path style="fill: rgb(128, 128, 128);" d="M 1 163.574 A 592.825 592.825 0.125527 0 1 75.2203 168.239 L 326.273 199.919 A 580.895 580.895 0.125527 0 0 399 204.49 L 399 216.42 A 592.825 592.825 0.125527 0 1 324.78 211.756 L 73.7267 180.075 A 580.895 580.895 0.125527 0 0 1 175.504 Z" /><title>EMBR → DUBL
2.37k</title></g><g class="link" style="opacity: 0.8;"><path style="fill: rgb(211, 211, 211);" d="M 1 329.728 A 138.962 138.962 0.589064 0 0 78.2049 306.307 L 314.061 148.708 A 152.882 152.882 0.589064 0 1 399 122.941 L 399 136.861 A 138.962 138.962 0.589064 0 0 321.795 160.282 L 85.9386 317.881 A 152.882 152.882 0.589064 0 1 1 343.648 Z" /><title>POWL → BALB
2.77k</title></g></g><g class="nodes"><g class="node" transform="translate(0 230.229)"><title>MONT</title><text style="display: inline;" text-anchor="end" transform="translate(-4 30.1716)" dy="0.35em">MONT</text><line style="display: inline; stroke: rgb(0, 0, 0);" x1="0" y1="0" x2="0" y2="60.3432" /><rect style="visibility: hidden; fill: none; pointer-events: all;" x="-5" y="-5" width="10" height="65.3432" /></g><g class="node" transform="translate(399 156.861)"><title>DELN</title><text style="display: inline;" text-anchor="start" transform="translate(4 11.2716)" dy="0.35em">DELN</text><line style="display: inline; stroke: rgb(0, 0, 0);" x1="0" y1="0" x2="0" y2="22.5433" /><rect style="visibility: hidden; fill: none; pointer-events: all;" x="-5" y="-5" width="10" height="27.5433" /></g><g class="node" transform="translate(399 250.144)"><title>FRMT</title><text style="display: inline;" text-anchor="start" transform="translate(4 9.68869)" dy="0.35em">FRMT</text><line style="display: inline; stroke: rgb(0, 0, 0);" x1="0" y1="0" x2="0" y2="19.3774" /><rect style="visibility: hidden; fill: none; pointer-events: all;" x="-5" y="-5" width="10" height="24.3774" /></g><g class="node" transform="translate(399 337.422)"><title>WCRK</title><text style="display: inline;" text-anchor="start" transform="translate(4 11.2892)" dy="0.35em">WCRK</text><line style="display: inline; stroke: rgb(0, 0, 0);" x1="0" y1="0" x2="0" y2="22.5785" /><rect style="visibility: hidden; fill: none; pointer-events: all;" x="-5" y="-5" width="10" height="27.5785" /></g><g class="node" transform="translate(399 289.521)"><title>PHIL</title><text style="display: inline;" text-anchor="start" transform="translate(4 13.9501)" dy="0.35em">PHIL</text><line style="display: inline; stroke: rgb(0, 0, 0);" x1="0" y1="0" x2="0" y2="27.9002" /><rect style="visibility: hidden; fill: none; pointer-events: all;" x="-5" y="-5" width="10" height="32.9002" /></g><g class="node" transform="translate(0 40)"><title>12TH</title><text style="display: inline;" text-anchor="end" transform="translate(-4 6.13081)" dy="0.35em">12TH</text><line style="display: inline; stroke: rgb(0, 0, 0);" x1="0" y1="0" x2="0" y2="12.2616" /><rect style="visibility: hidden; fill: none; pointer-events: all;" x="-5" y="-5" width="10" height="17.2616" /></g><g class="node" transform="translate(399 199.405)"><title>DUBL</title><text style="display: inline;" text-anchor="start" transform="translate(4 15.3697)" dy="0.35em">DUBL</text><line style="display: inline; stroke: rgb(0, 0, 0);" x1="0" y1="0" x2="0" y2="30.7395" /><rect style="visibility: hidden; fill: none; pointer-events: all;" x="-5" y="-5" width="10" height="35.7395" /></g><g class="node" transform="translate(399 94.3577)"><title>BALB</title><text style="display: inline;" text-anchor="start" transform="translate(4 21.2518)" dy="0.35em">BALB</text><line style="display: inline; stroke: rgb(0, 0, 0);" x1="0" y1="0" x2="0" y2="42.5036" /><rect style="visibility: hidden; fill: none; pointer-events: all;" x="-5" y="-5" width="10" height="47.5036" /></g><g class="node" transform="translate(0 320.572)"><title>POWL</title><text style="display: inline;" text-anchor="end" transform="translate(-4 19.7141)" dy="0.35em">POWL</text><line style="display: inline; stroke: rgb(0, 0, 0);" x1="0" y1="0" x2="0" y2="39.4281" /><rect style="visibility: hidden; fill: none; pointer-events: all;" x="-5" y="-5" width="10" height="44.4281" /></g><g class="node" transform="translate(0 141.634)"><title>EMBR</title><text style="display: inline;" text-anchor="end" transform="translate(-4 29.2972)" dy="0.35em">EMBR</text><line style="display: inline; stroke: rgb(0, 0, 0);" x1="0" y1="0" x2="0" y2="58.5944" /><rect style="visibility: hidden; fill: none; pointer-events: all;" x="-5" y="-5" width="10" height="63.5944" /></g><g class="node" transform="translate(399 40)"><title>24TH</title><text style="display: inline;" text-anchor="start" transform="translate(4 17.1788)" dy="0.35em">24TH</text><line style="display: inline; stroke: rgb(0, 0, 0);" x1="0" y1="0" x2="0" y2="34.3576" /><rect style="visibility: hidden; fill: none; pointer-events: all;" x="-5" y="-5" width="10" height="39.3576" /></g><g class="node" transform="translate(0 82.2616)"><title>CIVC</title><text style="display: inline;" text-anchor="end" transform="translate(-4 14.6863)" dy="0.35em">CIVC</text><line style="display: inline; stroke: rgb(0, 0, 0);" x1="0" y1="0" x2="0" y2="29.3726" /><rect style="visibility: hidden; fill: none; pointer-events: all;" x="-5" y="-5" width="10" height="34.3726" /></g></g><g class="slice-titles" /></g></svg>